<?xml version="1.0" standalone="no"?>
<!DOCTYPE svg PUBLIC "-//W3C//DTD SVG 20010904//EN"
 "http://www.w3.org/TR/2001/REC-SVG-20010904/DTD/svg10.dtd">
<svg version="1.0" xmlns="http://www.w3.org/2000/svg"
 width="200.000000pt" height="200.000000pt" viewBox="0 0 200.000000 200.000000"
 preserveAspectRatio="xMidYMid meet">
<metadata>
Created by potrace 1.14, written by Peter Selinger 2001-2017
</metadata>
<g transform="translate(0.000000,200.000000) scale(0.100000,-0.100000)"
fill="#000000" stroke="none">
<path d="M1020 1695 c-54 -11 -138 -45 -168 -68 -18 -15 -122 -118 -141 -142
-8 -10 -19 -14 -30 -10 -136 57 -295 -14 -365 -161 -14 -30 -26 -59 -26 -64 0
-5 -18 -21 -40 -35 -58 -37 -88 -65 -113 -105 -11 -19 -24 -37 -27 -40 -19
-14 -43 -120 -41 -181 3 -95 8 -116 42 -187 33 -68 102 -143 158 -172 78 -40
103 -41 734 -41 336 0 619 2 627 4 86 22 178 85 228 157 18 26 32 49 32 53 0
3 5 18 12 34 49 120 13 301 -78 387 -49 46 -54 50 -114 75 -30 13 -58 26 -62
30 -4 3 -11 34 -17 67 -17 110 -97 238 -197 315 -31 24 -125 67 -175 79 -63
16 -175 18 -239 5z"/>
</g>
</svg>
